<svg width="280" height="72" viewBox="0 0 280 72" fill="none" xmlns="http://www.w3.org/2000/svg" role="img" aria-labelledby="title desc">
  <title id="title">AI Mastery Step</title>
  <desc id="desc">Gradient capsule mark with AI initials beside the AI Mastery Step wordmark.</desc>
  <defs>
    <linearGradient id="bg" x1="0" y1="0" x2="1" y2="1">
      <stop offset="0%" stop-color="#FF7D5A"/>
      <stop offset="100%" stop-color="#5DD6C0"/>
    </linearGradient>
    <linearGradient id="shine" x1="0" y1="0" x2="0" y2="1">
      <stop offset="0%" stop-color="#FFFFFF" stop-opacity="0.7"/>
      <stop offset="100%" stop-color="#FFFFFF" stop-opacity="0"/>
    </linearGradient>
    <linearGradient id="word" x1="0" y1="0" x2="1" y2="0">
      <stop offset="0%" stop-color="#0F172A"/>
      <stop offset="100%" stop-color="#102342"/>
    </linearGradient>
    <clipPath id="clip">
      <rect x="6" y="6" width="116" height="60" rx="20"/>
    </clipPath>
  </defs>

  <rect x="6" y="6" width="116" height="60" rx="20" fill="url(#bg)"/>
  <g clip-path="url(#clip)">
    <rect x="6" y="-4" width="116" height="40" fill="url(#shine)" opacity="0.45"/>
    <circle cx="16" cy="62" r="26" fill="#FFFFFF" fill-opacity="0.08"/>
  </g>

  <path d="M36.5 47V23.5H43.7L52.6 37.2V23.5H60V47H52.8L44 33.3V47H36.5Z" fill="white"/>
  <path d="M68.5 47V23.5H80C83.8 23.5 86.6 24.4 88.6 26.2C90.6 28 91.6 30.6 91.6 33.8C91.6 37.1 90.6 39.8 88.5 41.7C86.4 43.5 83.5 44.4 79.6 44.4H75.7V47H68.5ZM75.7 38.9H79.3C80.8 38.9 81.9 38.5 82.7 37.8C83.5 37 83.9 35.8 83.9 34.2C83.9 32.6 83.5 31.4 82.7 30.6C81.9 29.8 80.8 29.4 79.3 29.4H75.7V38.9Z" fill="white"/>

  <text x="134" y="42" fill="url(#word)" font-family="Space Grotesk, 'Manrope', 'Segoe UI', sans-serif" font-size="26" font-weight="700" letter-spacing="-0.5">
    AI Mastery Step
  </text>
  <text x="134" y="58" fill="#5B6578" font-family="Manrope, 'Segoe UI', sans-serif" font-size="12" font-weight="600" letter-spacing="0.1">
    Practical AI for business owners
  </text>
</svg>
